<svg width="165" height="160" viewBox="0 0 165 160" fill="none" xmlns="http://www.w3.org/2000/svg">
<path d="M158.32 78.33L161.17 46.22L156.08 1.11L3.52 0L0 35.36L5.63 71.78L2.02 109.41L4.84 159.28L161.49 156.49L164.54 111.54L158.31 78.33H158.32ZM156.02 150.73L10.37 153.33L7.89 109.53L11.53 71.62L5.9 35.22L8.82 5.91L150.84 6.95L155.28 46.31L152.41 78.64L158.65 111.91L156.01 150.75L156.02 150.73Z" fill="#203E3F"/>
<path d="M54 30.96V69.43H41.36L33.34 53.44V69.43H21.25V30.96H34.28L41.92 46.73V30.96H54.01H54Z" fill="#203E3F"/>
<path d="M59.11 30.96H71.2V72.73H59.11V30.96Z" fill="#203E3F"/>
<path d="M75.27 53.22V44.98C75.27 34.37 81.86 27.67 92.2 27.67C102.54 27.67 108.19 33.06 108.85 43.94H96.76C96.15 40.26 95.28 39.16 92.09 39.16C88.9 39.16 87.36 41.19 87.36 45.04V53.78C87.36 57.63 89.01 59.66 92.09 59.66C95.66 59.66 96.38 58.23 96.76 54.27H108.85C108.19 65.21 102.2 70.54 91.92 70.54C81.64 70.54 75.27 63.83 75.27 53.23V53.22Z" fill="#203E3F"/>
<path d="M111.54 55.42V48.28C111.54 37.73 118.08 30.97 128.36 30.97C138.64 30.97 145.12 37.73 145.12 48.28V55.42C145.12 65.97 138.58 72.73 128.36 72.73C118.14 72.73 111.54 65.97 111.54 55.42ZM133.03 55.8V48.33C133.03 44.48 131.38 42.45 128.36 42.45C125.34 42.45 123.63 44.48 123.63 48.33V55.8C123.63 59.7 125.28 61.85 128.36 61.85C131.44 61.85 133.03 59.71 133.03 55.8Z" fill="#203E3F"/>
<path d="M47.13 122.7H37.43L35.89 130.92H21.57L31.65 82.11H52.91L62.99 130.92H48.67L47.13 122.7ZM44.82 109.98L42.32 96.11L39.75 109.98H44.82Z" fill="#203E3F"/>
<path d="M103.13 96.63C103.13 108 96.9 114.23 85.4 114.23H80.78V127.07H66.65V78.26H85.4C96.9 78.26 103.13 84.75 103.13 96.63ZM89 96.63C89 93.03 87.71 91.68 84.44 91.68H80.78V101.51H84.44C87.72 101.51 89 100.1 89 96.63Z" fill="#203E3F"/>
<path d="M143.72 100.48C143.72 111.85 137.49 118.08 125.99 118.08H121.37V130.92H107.24V82.11H125.99C137.49 82.11 143.72 88.6 143.72 100.48ZM129.59 100.48C129.59 96.88 128.3 95.53 125.03 95.53H121.37V105.36H125.03C128.31 105.36 129.59 103.95 129.59 100.48Z" fill="#203E3F"/>
</svg>
