<svg width="92" height="90" viewBox="0 0 92 90" fill="none" xmlns="http://www.w3.org/2000/svg">
<path d="M4.16878 3.08499L2.80316 20.4398L5.81121 40.1545L3.55451 64.1762L5.81121 87.8301L88.6577 86.9809L90.4794 62.1762L85.3043 44.57L88.7289 27.2892L85.3649 3.08499H4.16878Z" fill="#F50000"/>
<path d="M20.0922 21.7018L19.9947 19.1859H20.0421L20.8963 20.6594C20.9068 20.678 20.9174 20.6938 20.9279 20.7097L24.487 25.8923C24.6346 26.1066 24.8798 26.2363 25.1381 26.2363H30.0364C30.4635 26.2363 30.8168 25.895 30.8273 25.4638L31.141 14.8128C31.1542 14.4027 30.851 14.0508 30.4477 14.0006L26.8438 13.5535C26.3693 13.4953 25.9501 13.8709 25.9554 14.3498L26.0266 21.0721H25.9791L25.1329 19.6303C25.117 19.6065 25.1012 19.5827 25.0854 19.5589L20.7724 13.7625C20.6221 13.5614 20.3875 13.4424 20.137 13.4424H15.2915C14.8354 13.4424 14.4742 13.8286 14.5006 14.2836L15.1676 25.4876C15.1913 25.9082 15.5393 26.2363 15.9585 26.2363H19.296C19.7337 26.2363 20.0869 25.8791 20.0869 25.4426V21.7044L20.0922 21.7018Z" fill="white"/>
<path d="M39.3769 51.6495L24.8428 49.5701C24.3999 49.5066 24.0967 49.0886 24.1732 48.6468L27.263 30.7999C27.35 30.3025 26.9545 29.8501 26.451 29.8687L16.1667 30.2734C15.7422 30.2893 15.4048 30.6412 15.4048 31.0671V54.9618C15.4048 55.4009 15.7607 55.7554 16.1957 55.7554H39.2609C39.6985 55.7554 40.0518 55.3983 40.0518 54.9618V52.4379C40.0518 52.0411 39.7618 51.7077 39.3716 51.6522L39.3769 51.6495Z" fill="white"/>
<path d="M37.1123 31.9692L37.6553 32.2602C37.9322 32.4084 38.2722 32.3793 38.5201 32.1835L38.9709 31.8263C39.2582 31.5988 39.6642 31.5988 39.9516 31.8263L40.4024 32.1835C40.6502 32.3793 40.9903 32.411 41.2671 32.2602L41.8102 31.9692C42.3137 31.6993 42.3744 31.0009 41.9262 30.6438L40.2231 29.2945L39.9305 29.0776C39.6484 28.8686 39.2609 28.8686 38.9814 29.0829L38.6993 29.2972L36.9963 30.6464C36.5481 31.0009 36.6114 31.6994 37.1123 31.9718V31.9692Z" fill="white"/>
<path d="M38.4172 14.9292L34.3704 14.9107C33.9513 14.9107 33.6033 15.2334 33.5769 15.6514L32.8862 25.9929C32.8572 26.4109 33.1604 26.7786 33.5743 26.8342L37.5868 27.3607C38.0402 27.4189 38.4488 27.0829 38.4805 26.6252L39.2055 15.7758C39.2371 15.3181 38.8759 14.9292 38.4198 14.9265L38.4172 14.9292Z" fill="white"/>
<path d="M70.6727 37.5381L70.7834 40.3239H70.728L61.4666 32.7073C61.3243 32.5909 61.1476 32.5274 60.9657 32.5274L50.7289 32.5221C50.2254 32.5221 49.8484 32.9877 49.9538 33.4825L54.4804 54.803C54.5595 55.1707 54.8811 55.4326 55.2555 55.4326H59.4182C59.8559 55.4326 60.2091 55.0755 60.2091 54.639V46.7552L60.0984 43.9695H60.1538L61.1055 45.5515C61.1371 45.6018 61.174 45.6494 61.2136 45.6944L70.3721 55.1945C70.5224 55.3506 70.7281 55.4379 70.9416 55.4379H76.9893C77.4612 55.4379 77.8277 55.0279 77.7776 54.557L75.4919 33.2364C75.4497 32.8317 75.1096 32.5274 74.7036 32.5274H71.4689C71.0312 32.5274 70.678 32.8846 70.678 33.3211V37.5434L70.6727 37.5381Z" fill="white"/>
<path d="M41.3252 26.1225C42.1319 27.1067 43.2339 27.821 44.6285 28.2628C46.0231 28.7046 47.6497 28.8501 49.5136 28.7046C50.8739 28.5961 52.0972 28.358 53.186 27.9877C54.2748 27.6173 55.1817 27.0802 55.9093 26.3739C56.3997 25.8977 56.7793 25.3342 57.0482 24.686C57.2512 24.1939 56.9375 23.641 56.4102 23.5802L52.4636 23.1225C52.0972 23.0801 51.736 23.2944 51.6253 23.6463C51.5146 23.9982 51.33 24.2918 51.0717 24.5087C50.6841 24.8368 50.1674 25.0246 49.5215 25.0775C48.8044 25.1331 48.2244 25.059 47.7736 24.8527C47.3254 24.6463 46.988 24.2971 46.7586 23.805C46.5319 23.313 46.3869 22.6807 46.3263 21.9135C46.2656 21.1304 46.3184 20.4822 46.4845 19.9637C46.6506 19.4478 46.9353 19.051 47.336 18.7785C47.7367 18.506 48.2429 18.3446 48.8519 18.297C49.5136 18.2441 50.0751 18.3314 50.5339 18.5562C50.8529 18.715 51.1138 19.0298 51.3142 19.506C51.4777 19.8922 51.9285 20.0669 52.3186 19.9161L56.0016 18.4875C56.4656 18.3076 56.6449 17.7546 56.3891 17.3261C56.0596 16.7705 55.6141 16.3075 55.0525 15.9398C54.2273 15.3974 53.2387 15.0324 52.0893 14.8392C50.9399 14.6488 49.7113 14.6038 48.4037 14.707C46.5425 14.8551 44.958 15.2572 43.6504 15.9133C42.3428 16.5694 41.3674 17.4478 40.7241 18.5483C40.0808 19.6489 39.8172 20.9399 39.9332 22.4214C40.0492 23.9029 40.5106 25.1357 41.3173 26.1225H41.3252Z" fill="white"/>
<path d="M60.5017 26.5432C61.717 27.3183 63.2303 27.8686 65.0414 28.1993C66.8684 28.5326 68.4818 28.5538 69.8844 28.2575C71.2869 27.9638 72.4258 27.3712 73.3063 26.485C74.1842 25.5987 74.7563 24.4347 75.0173 22.9955C75.2783 21.5563 75.1517 20.2653 74.6403 19.125C74.1289 17.9848 73.2668 17.0271 72.0593 16.2546C70.8519 15.4821 69.3334 14.9292 67.5064 14.5958C65.6979 14.2651 64.0871 14.2466 62.6767 14.5403C61.2662 14.8339 60.1168 15.4239 59.2284 16.3075C58.3399 17.1911 57.7652 18.3552 57.5042 19.7944C57.2432 21.2335 57.3724 22.5272 57.8944 23.6674C58.4164 24.8103 59.2837 25.768 60.5017 26.5405V26.5432ZM63.7154 20.9319C63.8551 20.1594 64.0607 19.5483 64.3296 19.1012C64.5985 18.6541 64.9413 18.3499 65.3578 18.1832C65.7743 18.0192 66.2779 17.9901 66.8684 18.0986C67.459 18.207 67.9203 18.4107 68.2525 18.7123C68.5847 19.0139 68.7929 19.4213 68.8799 19.9319C68.9669 20.4425 68.9406 21.0854 68.8008 21.8605C68.6637 22.6198 68.4634 23.2283 68.2024 23.6833C67.9388 24.1384 67.6013 24.4479 67.1848 24.6119C66.7682 24.7759 66.2647 24.805 65.6742 24.6966C65.0836 24.5881 64.6196 24.3844 64.2901 24.0828C63.9579 23.7812 63.7444 23.3711 63.6495 22.85C63.5546 22.3288 63.5756 21.6886 63.7154 20.9293V20.9319Z" fill="white"/>
<path d="M38.4252 60.8587C37.1017 59.7529 35.1403 59.2026 32.5435 59.2026H16.3961C15.9584 59.2026 15.6052 59.5598 15.6052 59.9963V75.7294C15.6052 76.1686 15.9611 76.5231 16.3961 76.5231H32.5435C35.1403 76.5231 37.1017 75.9675 38.4252 74.8564C39.7486 73.7452 40.4103 67.5784 40.4103 65.5599C40.4103 63.5413 39.7486 61.9619 38.4252 60.8587ZM31.953 71.0335C31.7105 71.3748 25.2884 71.5468 24.5528 71.5468H24.3604C23.9228 71.5468 23.5695 71.1896 23.5695 70.7531V64.9726C23.5695 64.5334 23.9254 64.1789 24.3604 64.1789H24.5528C25.2884 64.1789 31.7078 64.3509 31.953 64.6921C32.1956 65.0334 32.3168 65.5731 32.3168 66.3112C32.3168 67.0493 32.1956 70.6923 31.953 71.0335Z" fill="white"/>
<path d="M44.5231 75.2453L54.5885 75.2506C55.0262 75.2506 55.3794 74.896 55.3821 74.4569L55.3926 58.5624C55.3926 58.102 55.0051 57.737 54.5464 57.7687L44.8948 58.4275C44.4888 58.4566 44.1672 58.7899 44.1566 59.1973L43.7322 74.4278C43.719 74.8749 44.0775 75.2453 44.5231 75.2453Z" fill="white"/>
<path d="M62.2812 57.9221L57.6545 74.6023C57.5148 75.1076 57.8944 75.6103 58.4164 75.6103H63.03C63.3305 75.6103 63.6047 75.441 63.7391 75.1685L65.9141 70.7875C66.0485 70.5176 66.3227 70.3456 66.6233 70.3456H70.0584C70.3879 70.3456 70.6832 70.552 70.7992 70.8615L72.2676 74.7875C72.3836 75.0971 72.6789 75.3034 73.0084 75.3034H77.3795C77.9094 75.3034 78.289 74.7902 78.1387 74.2822L73.28 57.9089C73.1798 57.5729 72.8714 57.3401 72.5207 57.3401H63.0431C62.6872 57.3401 62.3761 57.5782 62.2812 57.9221ZM67.3351 66.5202L67.6303 65.5731C67.8623 64.8297 68.9142 64.8323 69.1436 65.5757L69.4336 66.5228C69.5918 67.0334 69.2095 67.5519 68.677 67.5519H68.0891C67.5539 67.5519 67.1743 67.0308 67.3324 66.5175L67.3351 66.5202Z" fill="white"/>
<path d="M52.7035 54.2316L44.4017 33.8634C44.2804 33.5645 43.9904 33.3687 43.6688 33.3687H32.2351C31.8713 33.3687 31.5523 33.6174 31.4653 33.9719L28.5653 45.7817C28.4599 46.2129 28.7261 46.6468 29.1558 46.7446L35.889 48.3188C36.237 48.4008 36.5955 48.2394 36.7643 47.9246L36.9831 47.5224C37.1413 47.2288 37.4655 47.0674 37.7951 47.115L42.261 47.7764C42.6116 47.8293 42.8858 48.1098 42.9306 48.4616L43.6609 54.1892C43.7084 54.5676 44.0194 54.8586 44.3991 54.8824L51.9284 55.3268C52.511 55.3612 52.9276 54.7739 52.7088 54.2316H52.7035ZM38.0086 41.9086L38.7415 39.6493C38.9788 38.9164 40.0149 38.9191 40.2495 39.6546L40.9692 41.9139C41.1327 42.4271 40.7504 42.9509 40.2152 42.9509H38.76C38.2222 42.9509 37.8399 42.4245 38.006 41.9086H38.0086Z" fill="white"/>
<path d="M88.5603 44.1388L90.1184 26.5379C90.1236 26.4717 90.1236 26.403 90.1184 26.3368L87.4109 2.26225C87.3529 1.75695 86.931 1.37599 86.4249 1.3707L3.75764 0.76222C3.24092 0.759575 2.80592 1.15112 2.75583 1.667L0.907769 20.2759C0.89986 20.3605 0.902496 20.4452 0.915678 20.5298L3.9949 40.5117C4.00809 40.5937 4.01072 40.6784 4.00281 40.7604L2.02557 61.4672C2.0203 61.5174 2.0203 61.5677 2.02293 61.6206L3.52828 88.2905C3.55991 88.8275 4.00809 89.2482 4.5459 89.2376L89.3986 87.7191C89.918 87.7085 90.3424 87.3037 90.3793 86.7825L91.9981 62.8561C92.0033 62.7714 91.9981 62.6868 91.9822 62.6021L88.5814 44.4139C88.5656 44.324 88.5603 44.2314 88.5682 44.1388H88.5603ZM86.359 84.5179L7.59876 85.9254C7.06095 85.936 6.61278 85.5179 6.58114 84.9782L5.26825 61.6815C5.26561 61.6312 5.26825 61.5809 5.27089 61.528L7.26395 40.6652C7.27186 40.5832 7.26922 40.4985 7.25604 40.4165L4.17681 20.4399C4.16363 20.3552 4.16099 20.2706 4.1689 20.1859L5.68215 4.93956C5.73224 4.42367 6.16724 4.03213 6.68396 4.03478L83.517 4.59828C84.0232 4.60092 84.4476 4.98453 84.503 5.48983L86.8519 26.3712C86.8599 26.4374 86.8599 26.5061 86.8519 26.5723L85.2833 44.2922C85.2754 44.3848 85.2807 44.4748 85.2965 44.5674L88.7027 62.79C88.7185 62.8746 88.7237 62.9593 88.7185 63.0439L87.3291 83.5788C87.2948 84.0999 86.8678 84.5047 86.3484 84.5153L86.359 84.5179Z" fill="white"/>
</svg>
