<svg width="68" height="67" viewBox="0 0 68 67" fill="none" xmlns="http://www.w3.org/2000/svg">
<path d="M14.3238 15.6307L14.2509 13.7526H14.2864L14.924 14.8526C14.9318 14.8664 14.9397 14.8783 14.9476 14.8901L17.6043 18.7587C17.7145 18.9187 17.8975 19.0155 18.0903 19.0155H21.7467C22.0655 19.0155 22.3292 18.7607 22.3371 18.4388L22.5713 10.4883C22.5811 10.1822 22.3548 9.91954 22.0537 9.88202L19.3636 9.54827C19.0093 9.50483 18.6964 9.78525 18.7004 10.1427L18.7535 15.1607H18.7181L18.0864 14.0844C18.0746 14.0666 18.0628 14.0488 18.051 14.0311L14.8315 9.70428C14.7193 9.5542 14.5442 9.46533 14.3572 9.46533H10.7402C10.3997 9.46533 10.1301 9.75365 10.1498 10.0933L10.6477 18.4566C10.6654 18.7706 10.9252 19.0155 11.2381 19.0155H13.7294C14.0561 19.0155 14.3198 18.7489 14.3198 18.423V15.6326L14.3238 15.6307Z" fill="white"/>
<path d="M28.719 37.9853L17.8699 36.4331C17.5393 36.3857 17.313 36.0737 17.37 35.7439L19.6764 22.4219C19.7414 22.0506 19.4462 21.7129 19.0703 21.7267L11.3935 22.0289C11.0767 22.0407 10.8248 22.3034 10.8248 22.6213V40.4577C10.8248 40.7855 11.0904 41.0502 11.4151 41.0502H28.6324C28.959 41.0502 29.2227 40.7836 29.2227 40.4577V38.5738C29.2227 38.2775 29.0063 38.0287 28.715 37.9872L28.719 37.9853Z" fill="white"/>
<path d="M27.0285 23.2948L27.4339 23.512C27.6405 23.6226 27.8944 23.6008 28.0794 23.4547L28.4159 23.1881C28.6304 23.0183 28.9334 23.0183 29.1479 23.1881L29.4844 23.4547C29.6694 23.6008 29.9233 23.6245 30.1299 23.512L30.5353 23.2948C30.9112 23.0933 30.9564 22.572 30.6219 22.3054L29.3506 21.2982L29.1322 21.1363C28.9216 20.9803 28.6323 20.9803 28.4237 21.1402L28.2132 21.3002L26.9419 22.3073C26.6074 22.572 26.6546 23.0933 27.0285 23.2967V23.2948Z" fill="white"/>
<path d="M28.0026 10.5751L24.9819 10.5613C24.669 10.5613 24.4092 10.8022 24.3895 11.1142L23.8739 18.8337C23.8523 19.1457 24.0786 19.4202 24.3876 19.4617L27.3827 19.8547C27.7212 19.8981 28.0262 19.6473 28.0498 19.3057L28.591 11.207C28.6146 10.8654 28.345 10.5751 28.0046 10.5731L28.0026 10.5751Z" fill="white"/>
<path d="M52.08 27.4517L52.1627 29.5312H52.1213L45.2081 23.8458C45.1018 23.7589 44.97 23.7115 44.8342 23.7115L37.1928 23.7075C36.8169 23.7075 36.5355 24.0551 36.6142 24.4244L39.9931 40.3393C40.0522 40.6138 40.2922 40.8093 40.5717 40.8093H43.679C44.0057 40.8093 44.2694 40.5427 44.2694 40.2169V34.332L44.1867 32.2525H44.2281L44.9385 33.4334C44.9621 33.4709 44.9896 33.5065 45.0192 33.5401L51.8557 40.6316C51.9679 40.7481 52.1214 40.8132 52.2808 40.8132H56.7951C57.1474 40.8132 57.4209 40.5072 57.3835 40.1556L55.6774 24.2407C55.6459 23.9386 55.392 23.7115 55.089 23.7115H52.6743C52.3477 23.7115 52.084 23.9781 52.084 24.3039V27.4557L52.08 27.4517Z" fill="white"/>
<path d="M30.1733 18.9305C30.7755 19.6651 31.598 20.1983 32.6391 20.5281C33.6801 20.8579 34.8943 20.9665 36.2856 20.8579C37.301 20.7769 38.2142 20.5992 39.0269 20.3227C39.8396 20.0462 40.5166 19.6454 41.0597 19.1181C41.4258 18.7626 41.7092 18.342 41.9099 17.8582C42.0614 17.4908 41.8272 17.0781 41.4337 17.0327L38.4877 16.691C38.2142 16.6595 37.9445 16.8194 37.8619 17.0821C37.7792 17.3447 37.6415 17.5639 37.4486 17.7258C37.1594 17.9707 36.7736 18.1109 36.2915 18.1504C35.7562 18.1919 35.3233 18.1366 34.9868 17.9826C34.6522 17.8285 34.4003 17.5679 34.2291 17.2005C34.0599 16.8332 33.9517 16.3613 33.9064 15.7886C33.8611 15.204 33.9005 14.7202 34.0245 14.3331C34.1485 13.9481 34.361 13.6518 34.6601 13.4484C34.9592 13.245 35.3371 13.1246 35.7917 13.089C36.2856 13.0495 36.7048 13.1147 37.0472 13.2825C37.2853 13.401 37.4801 13.636 37.6297 13.9915C37.7517 14.2798 38.0882 14.4102 38.3795 14.2976L41.1286 13.2312C41.475 13.0969 41.6088 12.6842 41.4179 12.3643C41.1719 11.9496 40.8393 11.604 40.4202 11.3295C39.8042 10.9246 39.0663 10.6521 38.2083 10.5079C37.3502 10.3658 36.4332 10.3322 35.4571 10.4092C34.0678 10.5198 32.8851 10.82 31.909 11.3097C30.9329 11.7995 30.2048 12.4551 29.7246 13.2766C29.2444 14.0981 29.0476 15.0618 29.1342 16.1677C29.2208 17.2736 29.5652 18.1939 30.1674 18.9305H30.1733Z" fill="white"/>
<path d="M44.4878 19.2444C45.395 19.8231 46.5246 20.2338 47.8765 20.4807C49.2403 20.7295 50.4446 20.7453 51.4916 20.5241C52.5385 20.3049 53.3886 19.8626 54.0459 19.201C54.7012 18.5394 55.1283 17.6705 55.3231 16.5962C55.5179 15.5219 55.4234 14.5582 55.0417 13.7071C54.6599 12.856 54.0164 12.1411 53.1151 11.5644C52.2138 10.9878 51.0803 10.5751 49.7165 10.3262C48.3665 10.0794 47.1641 10.0656 46.1113 10.2848C45.0585 10.504 44.2005 10.9444 43.5373 11.6039C42.8741 12.2635 42.4451 13.1324 42.2503 14.2067C42.0554 15.281 42.1519 16.2467 42.5415 17.0978C42.9312 17.951 43.5786 18.6658 44.4878 19.2425V19.2444ZM46.8866 15.0559C46.9909 14.4793 47.1444 14.0231 47.3452 13.6893C47.5459 13.3556 47.8017 13.1285 48.1127 13.0041C48.4236 12.8816 48.7995 12.8599 49.2403 12.9409C49.6811 13.0219 50.0255 13.1739 50.2734 13.399C50.5214 13.6242 50.6768 13.9283 50.7418 14.3094C50.8067 14.6906 50.787 15.1704 50.6827 15.7491C50.5804 16.3158 50.4309 16.77 50.236 17.1097C50.0392 17.4494 49.7873 17.6804 49.4764 17.8028C49.1655 17.9253 48.7896 17.947 48.3488 17.866C47.908 17.7851 47.5616 17.633 47.3157 17.4079C47.0677 17.1828 46.9083 16.8767 46.8375 16.4876C46.7666 16.0986 46.7823 15.6207 46.8866 15.0539V15.0559Z" fill="white"/>
<path d="M28.0085 44.8595C27.0206 44.0341 25.5565 43.6233 23.6181 43.6233H11.5647C11.238 43.6233 10.9743 43.8899 10.9743 44.2157V55.9599C10.9743 56.2877 11.24 56.5523 11.5647 56.5523H23.6181C25.5565 56.5523 27.0206 56.1376 28.0085 55.3082C28.9964 54.4788 29.4904 49.8755 29.4904 48.3687C29.4904 46.862 28.9964 45.683 28.0085 44.8595ZM23.1773 52.4546C22.9963 52.7094 18.2024 52.8377 17.6534 52.8377H17.5097C17.1831 52.8377 16.9194 52.5711 16.9194 52.2453V47.9303C16.9194 47.6025 17.185 47.3379 17.5097 47.3379H17.6534C18.2024 47.3379 22.9943 47.4663 23.1773 47.721C23.3584 47.9758 23.4489 48.3786 23.4489 48.9296C23.4489 49.4806 23.3584 52.1999 23.1773 52.4546Z" fill="white"/>
<path d="M32.5604 55.5987L40.0738 55.6027C40.4005 55.6027 40.6642 55.3381 40.6662 55.0102L40.6741 43.1456C40.6741 42.802 40.3848 42.5295 40.0424 42.5532L32.8378 43.0449C32.5348 43.0666 32.2947 43.3155 32.2868 43.6196L31.97 54.9885C31.9601 55.3223 32.2278 55.5987 32.5604 55.5987Z" fill="white"/>
<path d="M45.8161 42.6676L42.3624 55.1187C42.2581 55.4959 42.5415 55.8711 42.9311 55.8711H46.375C46.5993 55.8711 46.804 55.7447 46.9044 55.5413L48.5279 52.2711C48.6282 52.0696 48.8329 51.9413 49.0572 51.9413H51.6214C51.8674 51.9413 52.0878 52.0953 52.1744 52.3264L53.2705 55.257C53.3571 55.488 53.5775 55.6421 53.8235 55.6421H57.0863C57.4819 55.6421 57.7652 55.2589 57.6531 54.8798L54.0262 42.6577C53.9514 42.4069 53.7212 42.2332 53.4595 42.2332H46.3848C46.1192 42.2332 45.8869 42.4109 45.8161 42.6676ZM49.5886 49.0857L49.809 48.3787C49.9822 47.8238 50.7674 47.8258 50.9386 48.3807L51.155 49.0877C51.2731 49.4688 50.9878 49.8559 50.5902 49.8559H50.1514C49.7519 49.8559 49.4685 49.4669 49.5866 49.0837L49.5886 49.0857Z" fill="white"/>
<path d="M38.6667 39.9126L32.4698 24.7086C32.3793 24.4855 32.1628 24.3394 31.9227 24.3394H23.3879C23.1163 24.3394 22.8782 24.525 22.8133 24.7896L20.6486 33.6051C20.5699 33.927 20.7686 34.2509 21.0894 34.3239L26.1154 35.499C26.3752 35.5602 26.6428 35.4397 26.7688 35.2047L26.9321 34.9045C27.0502 34.6853 27.2922 34.5649 27.5382 34.6004L30.8719 35.0941C31.1336 35.1336 31.3383 35.3429 31.3717 35.6056L31.9168 39.881C31.9522 40.1634 32.1845 40.3807 32.4678 40.3984L38.0882 40.7302C38.5231 40.7559 38.834 40.3175 38.6707 39.9126H38.6667ZM27.6976 30.714L28.2447 29.0275C28.4218 28.4805 29.1952 28.4825 29.3703 29.0315L29.9076 30.718C30.0296 31.1011 29.7442 31.4921 29.3448 31.4921H28.2585C27.857 31.4921 27.5717 31.0991 27.6957 30.714H27.6976Z" fill="white"/>
<path d="M65.4324 32.3789L66.5954 19.2405C66.5993 19.1911 66.5993 19.1398 66.5954 19.0904L64.5744 1.11972C64.5311 0.742535 64.2162 0.458164 63.8384 0.454214L2.13063 9.9479e-06C1.74492 -0.00196485 1.42022 0.290306 1.38283 0.675392L0.00332085 14.5661C-0.00258288 14.6293 -0.000614972 14.6925 0.00922458 14.7557L2.30774 29.6714C2.31758 29.7326 2.31955 29.7958 2.31365 29.857L0.837714 45.3138C0.833779 45.3513 0.833779 45.3888 0.835746 45.4283L1.95942 65.3363C1.98304 65.7372 2.31758 66.0512 2.71904 66.0433L66.0582 64.9098C66.4458 64.9019 66.7627 64.5997 66.7902 64.2107L67.9985 46.3506C68.0025 46.2874 67.9985 46.2242 67.9867 46.161L65.4481 32.5842C65.4363 32.5171 65.4324 32.448 65.4383 32.3789H65.4324ZM63.7892 62.5202L4.99787 63.5708C4.59642 63.5787 4.26188 63.2667 4.23826 62.8639L3.25824 45.4738C3.25627 45.4362 3.25824 45.3987 3.26021 45.3592L4.74795 29.7859C4.75385 29.7247 4.75189 29.6615 4.74205 29.6003L2.44353 14.6886C2.43369 14.6254 2.43172 14.5622 2.43762 14.499L3.5672 3.11822C3.60459 2.73313 3.9293 2.44086 4.31501 2.44284L61.6678 2.86347C62.0456 2.86545 62.3624 3.15179 62.4038 3.52898L64.1572 19.1161C64.1631 19.1655 64.1631 19.2168 64.1572 19.2662L62.9863 32.4934C62.9804 32.5625 62.9843 32.6297 62.9961 32.6988L65.5386 46.3012C65.5504 46.3644 65.5544 46.4276 65.5504 46.4908L64.5134 61.8192C64.4878 62.2082 64.169 62.5104 63.7813 62.5183L63.7892 62.5202Z" fill="white"/>
</svg>
